<svg width="20" height="20" viewBox="0 0 20 20" fill="none" xmlns="http://www.w3.org/2000/svg">
<path d="M11.0271 0C12.1525 0.00186 12.7228 0.00782002 13.2156 0.02249L13.4097 0.0288301C13.6339 0.0368 13.8551 0.0467999 14.1218 0.0592999C15.1859 0.10847 15.9118 0.2768 16.5493 0.5243C17.2084 0.77847 17.7651 1.1218 18.3209 1.67764C18.8759 2.23347 19.2193 2.7918 19.4743 3.4493C19.7209 4.08597 19.8893 4.81264 19.9393 5.8768C19.9512 6.14347 19.9608 6.36467 19.9687 6.58891L19.975 6.783C19.9896 7.27574 19.9963 7.84613 19.9984 8.97157L19.9992 9.71717C19.9993 9.80827 19.9993 9.90227 19.9993 9.99927L19.9992 10.2814L19.9986 11.0271C19.9967 12.1525 19.9908 12.7229 19.9761 13.2156L19.9697 13.4097C19.9618 13.634 19.9518 13.8552 19.9393 14.1218C19.8901 15.186 19.7209 15.9118 19.4743 16.5493C19.2201 17.2085 18.8759 17.7652 18.3209 18.321C17.7651 18.876 17.2059 19.2193 16.5493 19.4743C15.9118 19.721 15.1859 19.8893 14.1218 19.9393C13.8551 19.9512 13.6339 19.9609 13.4097 19.9687L13.2156 19.975C12.7228 19.9897 12.1525 19.9963 11.0271 19.9985L10.2814 19.9993C10.1903 19.9993 10.0963 19.9993 9.99932 19.9993H9.71722L8.97152 19.9986C7.84612 19.9968 7.27574 19.9908 6.78299 19.9761L6.58891 19.9698C6.36466 19.9618 6.14346 19.9518 5.8768 19.9393C4.81263 19.8902 4.08763 19.721 3.4493 19.4743C2.79096 19.2202 2.23346 18.876 1.67763 18.321C1.1218 17.7652 0.7793 17.206 0.5243 16.5493C0.2768 15.9118 0.1093 15.186 0.0593002 14.1218C0.0474202 13.8552 0.03773 13.634 0.02988 13.4097L0.0235901 13.2156C0.00896009 12.7229 0.00229018 12.1525 0.000130177 11.0271L0 8.97157C0.00186 7.84613 0.00781001 7.27574 0.02248 6.783L0.0288301 6.58891C0.0368 6.36467 0.0468002 6.14347 0.0593002 5.8768C0.10846 4.8118 0.2768 4.0868 0.5243 3.4493C0.77846 2.79097 1.1218 2.23347 1.67763 1.67764C2.23346 1.1218 2.7918 0.7793 3.4493 0.5243C4.0868 0.2768 4.8118 0.1093 5.8768 0.0592999C6.14346 0.0474299 6.36466 0.0377401 6.58891 0.0298901L6.78299 0.0235999C7.27574 0.00895986 7.84612 0.00228994 8.97152 0.000129938L11.0271 0ZM9.99932 4.9993C7.2364 4.9993 4.9993 7.23883 4.9993 9.99927C4.9993 12.7622 7.23883 14.9993 9.99932 14.9993C12.7622 14.9993 14.9993 12.7598 14.9993 9.99927C14.9993 7.2364 12.7597 4.9993 9.99932 4.9993ZM9.99932 6.9993C11.6562 6.9993 12.9993 8.34197 12.9993 9.99927C12.9993 11.6562 11.6566 12.9993 9.99932 12.9993C8.34242 12.9993 6.9993 11.6567 6.9993 9.99927C6.9993 8.34237 8.34192 6.9993 9.99932 6.9993ZM15.2493 3.4993C14.56 3.4993 13.9993 4.05921 13.9993 4.74845C13.9993 5.4377 14.5592 5.99847 15.2493 5.99847C15.9385 5.99847 16.4993 5.43857 16.4993 4.74845C16.4993 4.05921 15.9376 3.49844 15.2493 3.4993Z" fill="#FEFBF3"/>
</svg>
