<svg width="34" height="18" viewBox="0 0 34 18" fill="none" xmlns="http://www.w3.org/2000/svg">
<g clip-path="url(#clip0_377_894)">
<path d="M8.2 0.400003C8.2 0.200003 8.4 2.91992e-06 8.6 2.93741e-06C8.8 2.95489e-06 9 0.200003 9 0.400003C8.9 4.1 5 7.1 1.1 9C0.799998 8.9 0.500001 8.7 0.200001 8.6C4 6.7 8.1 3.9 8.2 0.400003Z" fill="#192E03" stroke="#192E03" stroke-width="0.1"/>
<path d="M9 17.6C9 17.8 8.8 18 8.6 18C8.4 18 8.2 17.8 8.2 17.6C8.1 14.1 4.1 11.3 0.200002 9.4C0.500002 9.3 0.799999 9.1 1.1 9C4.9 10.9 8.9 13.9 9 17.6Z" fill="#192E03" stroke="#192E03" stroke-width="0.1"/>
<path d="M34 9.1C34 9.3 33.8 9.5 33.6 9.5L0.400002 9.5C0.200001 9.5 1.74845e-08 9.3 3.49691e-08 9.1C5.24536e-08 8.9 0.200001 8.7 0.400002 8.7L33.6 8.7C33.8 8.6 34 8.7 34 9.1Z" fill="#192E03" stroke="#192E03" stroke-width="0.1"/>
</g>
<defs>
<clipPath id="clip0_377_894">
<rect width="34" height="18" fill="white" transform="translate(34 18) rotate(-180)"/>
</clipPath>
</defs>
</svg>
