<svg width="209" height="77" viewBox="0 0 209 77" fill="none" xmlns="http://www.w3.org/2000/svg">
<path d="M104.5 0.5C133.314 0.5 159.377 4.80324 178.22 11.7451C187.643 15.2167 195.233 19.3389 200.459 23.8906C205.686 28.4435 208.5 33.3822 208.5 38.5C208.5 43.6178 205.686 48.5565 200.459 53.1094C195.233 57.6611 187.643 61.7833 178.22 65.2549C159.377 72.1968 133.314 76.5 104.5 76.5C75.6865 76.5 49.6226 72.1968 30.7803 65.2549C21.3574 61.7833 13.7668 57.6611 8.54102 53.1094C3.31409 48.5565 0.5 43.6178 0.5 38.5C0.5 33.3822 3.31409 28.4435 8.54102 23.8906C13.7668 19.3389 21.3574 15.2167 30.7803 11.7451C49.6226 4.80324 75.6865 0.5 104.5 0.5Z" stroke="#ECFCCA"/>
<path d="M110.948 3.90226C137.106 7.20417 160.035 14.1125 175.959 22.5959C183.922 26.8385 190.11 31.4622 194.077 36.2046C198.045 40.9478 199.756 45.7624 198.889 50.4153C198.021 55.068 194.636 59.2387 189.123 62.785C183.611 66.3308 176.024 69.2158 166.882 71.2992C148.601 75.4651 124.21 76.4003 98.0519 73.0984C71.8938 69.7965 48.9648 62.8882 33.0414 54.4048C25.0781 50.1622 18.8907 45.5385 14.9233 40.7961C10.9554 36.053 9.24436 31.239 10.1114 26.5863C10.9785 21.9334 14.3642 17.7621 19.8773 14.2157C25.3894 10.6699 32.9763 7.78481 42.1186 5.70146C60.3995 1.53563 84.7904 0.600377 110.948 3.90226Z" stroke="#ECFCCA"/>
</svg>
