<svg width="1622" height="965" viewBox="0 0 1622 965" fill="none" xmlns="http://www.w3.org/2000/svg">
<g clip-path="url(#clip0_53_231)">
<path d="M434.259 137.64C434.789 138.68 435.839 139.28 436.929 139.28C437.209 139.28 437.489 139.23 437.769 139.14L593.479 198.44C593.819 198.57 594.189 198.64 594.549 198.64C595.019 198.64 595.479 198.53 595.899 198.32C596.129 198.2 596.339 198.05 596.529 197.88C596.589 197.87 596.649 197.84 596.709 197.82C596.799 197.79 596.899 197.77 596.989 197.74C597.079 197.71 597.159 197.66 597.239 197.62C597.339 197.57 597.429 197.53 597.519 197.47C597.589 197.42 597.659 197.37 597.729 197.32C597.819 197.25 597.909 197.18 597.989 197.1C598.009 197.08 598.039 197.06 598.059 197.04C598.099 197 598.129 196.95 598.169 196.91C598.239 196.83 598.309 196.75 598.369 196.66C598.419 196.58 598.469 196.5 598.519 196.42C598.569 196.33 598.609 196.25 598.649 196.16C598.689 196.07 598.719 195.98 598.749 195.89C598.779 195.8 598.809 195.7 598.829 195.61C598.849 195.51 598.859 195.42 598.879 195.32C598.889 195.23 598.899 195.13 598.899 195.03C598.899 194.92 598.899 194.82 598.889 194.71C598.889 194.65 598.889 194.6 598.879 194.54L598.569 192.39L642.229 34.8201L642.529 34.6701C644.009 33.9201 644.589 32.1101 643.839 30.6301C643.699 30.3501 643.499 30.1101 643.289 29.9001C643.119 28.8701 642.419 27.9601 641.379 27.5801L571.089 1.76015C570.549 0.580146 569.299 -0.159854 567.949 0.0301458C567.399 0.110146 566.919 0.340146 566.519 0.660146C566.309 0.710146 566.109 0.790146 565.919 0.890146L453.919 58.3501C453.149 58.7401 452.589 59.4501 452.379 60.2901L433.589 134.72C433.359 135.62 433.569 136.53 434.089 137.23C434.139 137.37 434.189 137.5 434.259 137.64ZM565.999 7.59015L573.539 60.1901L518.749 31.8301L565.999 7.59015ZM574.839 69.2101L591.699 186.74L505.989 104.38L574.839 69.2101ZM502.469 99.4301L514.409 36.3301L569.839 65.0301L502.469 99.4301ZM572.199 8.55015L635.169 31.6601L579.589 60.0501L572.199 8.55015ZM497.049 95.7901L461.209 61.3501L508.119 37.2801L497.049 95.7901ZM499.099 107.89C499.549 107.78 499.959 107.57 500.309 107.27L500.339 107.25L585.299 188.89L445.059 135.48L499.099 107.89ZM596.439 177.56L580.489 66.3201L634.979 38.4901L596.439 177.56ZM457.179 65.7901L495.719 102.83L495.709 102.89L440.729 130.97L457.179 65.7901Z" fill="#ECFCCA"/>
<path d="M1621.19 492.44C1620.49 490.94 1618.71 490.28 1617.21 490.98C1548.97 522.58 1503.66 499.7 1463.67 479.52C1428.1 461.56 1394.5 444.6 1352.72 471.23C1350.34 472.75 1348.09 474.35 1345.98 476.01C1298.4 450.53 1245.84 450.97 1201.5 477.3C1185.36 486.87 1171.67 498.5 1160.78 511.88C1138.72 504.41 1116.55 501.09 1094.81 501.97C1086.22 423.69 1051.91 351.19 995.99 294.69C930.869 228.88 844.28 192.64 752.18 192.64C663.76 192.64 579.82 226.37 515.56 287.65C481.89 275.26 446.529 268.96 410.419 268.96C328.409 268.96 251.31 301.23 193.32 359.84C135.34 418.43 103.41 496.34 103.41 579.2C103.41 662.06 135.34 739.96 193.32 798.56C233.91 839.58 283.859 867.67 338.299 880.86C318.509 901.03 298.729 914.73 277.979 922.67C216.899 946.05 153.199 939.02 102.739 903.46C115.099 883.32 121.759 859.33 121.549 835.55C121.339 812.52 114.729 792.33 103.429 780.16C91.1095 766.89 74.9495 764.71 57.9295 774.02C45.0795 781.05 37.7595 792.86 36.7695 808.18C34.7895 838.79 57.9495 877.4 94.6195 904.97C80.4295 925.76 53.1795 950.94 2.5795 958.11C0.939496 958.34 -0.200504 959.86 0.0294962 961.5C0.239496 963 1.5295 964.08 2.9995 964.08C3.1395 964.08 3.2795 964.07 3.4195 964.05C56.0395 956.59 84.5595 930.29 99.4695 908.5C122.719 924.83 149.609 935.75 177.439 940.14C211.099 945.46 245.649 941.47 280.119 928.27C302.589 919.68 323.859 904.66 345.109 882.43C366.329 887.05 388.179 889.44 410.409 889.44C469.359 889.44 526.54 872.52 575.93 840.51C609.32 860.63 645.77 874.78 683.7 882.52C696.86 902.15 718.93 914.23 749.37 918.41C755.02 919.19 760.3 919.55 765.25 919.55C801.97 919.55 819.73 899.53 828.31 880.97C864.02 872.88 898.08 859.09 929.4 840.06C930.54 840.98 931.64 841.84 932.71 842.67C944.98 852.15 957.529 856.92 969.609 856.92C979.279 856.92 988.65 853.87 997.37 847.74C1023.88 829.09 1036.68 786.6 1026.37 752.33C1072.15 691.92 1096.96 618.41 1096.96 541.04C1096.96 529.92 1096.43 518.89 1095.42 507.96C1115.66 507.19 1136.3 510.19 1156.87 516.92C1136.7 544.22 1127.51 578.63 1130.96 614.32C1134.12 647.04 1147.97 678.87 1168 699.47C1194.1 726.3 1225.92 730.22 1253.14 709.94C1277.79 691.56 1288.44 666.32 1283.95 636.94C1276.45 587.88 1227.49 536.75 1166.79 514.04C1177.01 501.9 1189.7 491.3 1204.56 482.48C1246.42 457.63 1295.95 456.87 1341.09 480.23C1311.04 508.44 1315.93 552.21 1337.03 581.94C1353.19 604.73 1375.09 613.42 1391.52 603.57C1406.87 594.37 1414.82 580.62 1414.5 563.81C1413.97 535.02 1388.34 500.74 1351.69 479.23C1353.05 478.23 1354.48 477.25 1355.95 476.31C1394.85 451.52 1425.49 466.99 1460.97 484.9C1502.17 505.7 1548.86 529.27 1619.73 496.45C1621.23 495.73 1621.89 493.95 1621.19 492.44ZM97.8795 899.9C63.4895 873.87 40.9395 836.67 42.7595 808.55C43.6095 795.39 49.8495 785.26 60.8095 779.27C67.2695 775.74 73.0095 774.33 78.0495 774.33C87.3795 774.33 94.3195 779.15 99.0395 784.23C119.139 805.89 123.289 858.14 97.8795 899.9ZM752.18 198.64C926.03 198.64 1069.69 331.68 1088.78 502.31C1079.57 502.99 1070.41 504.47 1061.48 506.72C1053.32 430.73 1018.05 360.53 961.87 308.72C904.45 255.76 829.98 226.6 752.18 226.6C677.03 226.6 604.47 254.04 547.87 303.87C539.92 310.87 532.16 318.44 524.81 326.38C523.12 328.21 521.46 330.05 519.82 331.91C468.95 389.56 441.019 463.52 441.019 541.02C441.019 544.18 441.059 547.33 441.149 550.47C441.639 567.59 443.469 584.44 446.609 600.96C446.929 602.62 447.249 604.28 447.599 605.94C448.799 611.73 450.169 617.47 451.689 623.17C451.779 623.49 451.859 623.82 451.949 624.14C452.799 627.29 453.709 630.43 454.659 633.55C459.979 650.97 466.829 667.96 475.219 684.45C475.219 684.45 475.219 684.45 475.219 684.46C475.249 684.52 475.279 684.59 475.309 684.65C496.769 726.81 527.7 763.81 565.24 792.39C568.97 795.23 572.749 797.98 576.609 800.65C585.449 806.76 594.65 812.44 603.95 817.54C625.68 829.48 648.91 838.78 672.99 845.17C698.73 851.99 725.37 855.45 752.19 855.45C779 855.45 805.58 852 831.26 845.19C830.15 856.61 827.74 866.81 824.08 875.63C800.9 880.71 776.86 883.41 752.2 883.41C690.44 883.41 630.02 866.46 577.45 834.39C568.29 828.83 559.2 822.67 550.44 816.09C513.18 788.12 482.499 753.44 459.239 713.02C429.279 661.03 413.439 601.55 413.439 541.01C413.439 458.75 442.719 379.24 495.899 317.12C503.039 308.79 510.61 300.75 518.38 293.24C581.66 232.24 664.7 198.64 752.18 198.64ZM1057.34 541.03C1057.34 603.19 1039.18 662.91 1004.81 714.05C970.65 669.33 927.42 653.92 895.43 649.12C924.31 593.93 982.21 542.98 1044.13 518.58C1048.08 517.02 1052.13 515.63 1056.19 514.41C1056.94 523.2 1057.34 532.14 1057.34 541.03ZM831.13 874.03C834.39 865 836.499 854.77 837.409 843.51C861.299 836.66 884.38 826.87 906.03 814.39C906.03 814.39 906.039 814.39 906.039 814.38C944.749 792.1 978.85 761.03 1004.93 724.38C1008.34 729.28 1011.62 734.48 1014.69 739.93C1016.66 743.45 1018.31 747.15 1019.63 750.96C973.11 811.36 907.05 855.64 831.13 874.03ZM905.25 807.88C870.12 764.49 865.63 710.3 892.59 654.77C923.98 659.11 967.389 673.98 1001.23 719.26C975.979 755.22 942.88 785.78 905.25 807.88ZM786.45 673.95C791.48 671.24 796.64 668.73 801.84 666.51C827.64 655.5 857.46 651.12 886.28 654.03C859.4 710.81 864.239 766.24 899.979 810.92C880.259 821.98 859.369 830.8 837.799 837.16C839.739 788.13 819.89 724.96 786.45 673.95ZM889.099 648.3C858.599 644.84 826.859 649.31 799.479 660.99C793.939 663.36 788.44 666.04 783.09 668.94C763.56 640.38 740.64 617.35 716.58 602.11C717.13 594.52 717.419 586.87 717.419 579.19C717.419 521.21 701.489 464.66 671.349 415.66C642.809 369.26 602.69 331.27 555.13 305.54C610.14 258.48 679.93 232.6 752.18 232.6C909.24 232.6 1039.25 350.96 1055.62 508.32C1051.01 509.67 1046.42 511.22 1041.93 512.99C1010.52 525.37 979.63 544.53 952.58 568.42C925.46 592.36 903.559 619.95 889.099 648.3ZM550.299 309.77C649.74 362.59 711.419 465.63 711.419 579.2C711.419 585.7 711.21 592.17 710.81 598.61C703.08 594.15 695.23 590.48 687.39 587.62C687.47 584.81 687.53 581.99 687.53 579.19C687.53 525.03 672.2 472.48 643.2 427.22C615.7 384.3 577.31 349.9 532.01 327.51C537.9 321.31 544.029 315.36 550.299 309.77ZM578.2 794.45C577.83 794.19 577.45 793.93 577.08 793.66C576.49 793.24 575.889 792.81 575.299 792.39C574.609 791.89 573.93 791.4 573.25 790.9C572.66 790.47 572.069 790.03 571.479 789.6C570.799 789.1 570.13 788.59 569.46 788.08C568.87 787.64 568.29 787.19 567.71 786.74C567.04 786.23 566.38 785.71 565.71 785.19C565.13 784.74 564.549 784.28 563.979 783.83C563.319 783.31 562.66 782.78 562.01 782.25C561.44 781.79 560.869 781.33 560.299 780.86C559.649 780.33 558.999 779.79 558.359 779.25C557.789 778.78 557.219 778.3 556.659 777.83C556.019 777.29 555.39 776.75 554.75 776.2C554.19 775.72 553.63 775.24 553.07 774.75C552.44 774.2 551.81 773.64 551.18 773.09C550.63 772.6 550.08 772.11 549.53 771.62C548.91 771.06 548.289 770.5 547.669 769.93C547.119 769.43 546.579 768.93 546.039 768.43C545.429 767.86 544.82 767.29 544.21 766.71C543.67 766.2 543.129 765.7 542.599 765.19C541.999 764.61 541.399 764.03 540.799 763.45C540.269 762.93 539.73 762.42 539.21 761.89C538.62 761.31 538.03 760.72 537.45 760.13C536.92 759.6 536.4 759.07 535.87 758.54C535.29 757.95 534.71 757.35 534.13 756.75C533.61 756.22 533.1 755.68 532.58 755.15C532.01 754.55 531.44 753.94 530.87 753.33C530.36 752.79 529.849 752.25 529.349 751.7C528.779 751.09 528.229 750.47 527.669 749.86C527.169 749.31 526.669 748.76 526.169 748.21C525.619 747.59 525.07 746.97 524.52 746.35C524.03 745.79 523.529 745.23 523.039 744.67C522.489 744.04 521.949 743.41 521.409 742.78C520.929 742.22 520.44 741.65 519.96 741.08C519.42 740.44 518.889 739.8 518.359 739.16C517.879 738.59 517.41 738.02 516.94 737.44C516.42 736.8 515.9 736.15 515.38 735.51C514.91 734.93 514.439 734.35 513.969 733.76C513.459 733.11 512.95 732.46 512.44 731.81C511.98 731.22 511.519 730.63 511.059 730.04C510.549 729.38 510.049 728.72 509.549 728.05C509.099 727.46 508.649 726.86 508.199 726.27C507.699 725.6 507.209 724.92 506.709 724.25C506.269 723.66 505.839 723.06 505.399 722.46C504.909 721.78 504.419 721.09 503.939 720.4C503.509 719.8 503.079 719.2 502.659 718.6C502.179 717.91 501.709 717.22 501.239 716.53C500.819 715.92 500.399 715.31 499.979 714.7C499.509 714.01 499.049 713.3 498.589 712.61C498.179 712 497.769 711.38 497.369 710.77C496.909 710.06 496.449 709.34 495.989 708.63C495.599 708.02 495.199 707.41 494.809 706.79C494.349 706.07 493.909 705.34 493.459 704.62C493.079 704 492.689 703.39 492.309 702.77C491.859 702.04 491.419 701.3 490.979 700.56C490.609 699.94 490.239 699.33 489.869 698.71C489.419 697.94 488.969 697.16 488.519 696.39C488.179 695.8 487.829 695.21 487.489 694.62C487.019 693.8 486.569 692.98 486.109 692.16C485.799 691.6 485.479 691.05 485.169 690.49C484.679 689.59 484.199 688.69 483.709 687.79C483.449 687.3 483.179 686.81 482.919 686.32C482.429 685.4 481.959 684.48 481.479 683.56C523.109 626.45 577.74 570.97 666.71 588.09C671.5 589.01 676.36 590.29 681.2 591.86C677.64 671.4 640.22 745.01 578.2 794.45ZM447.099 533.72C447.119 532.9 447.159 532.08 447.189 531.25C447.239 529.64 447.279 528.03 447.359 526.43C447.409 525.45 447.469 524.48 447.529 523.5C447.609 522.05 447.679 520.61 447.779 519.17C447.849 518.12 447.949 517.08 448.029 516.03C448.139 514.66 448.239 513.3 448.359 511.94C448.459 510.86 448.579 509.79 448.699 508.72C448.839 507.39 448.959 506.06 449.119 504.74C449.249 503.64 449.399 502.54 449.539 501.43C449.699 500.14 449.859 498.86 450.039 497.57C450.199 496.44 450.379 495.32 450.549 494.19C450.739 492.94 450.919 491.69 451.119 490.44C451.309 489.3 451.519 488.17 451.709 487.03C451.879 486.05 452.049 485.08 452.229 484.1C452.279 483.85 452.319 483.6 452.359 483.35C452.569 482.21 452.809 481.07 453.039 479.93C453.279 478.72 453.509 477.51 453.769 476.3C454.009 475.16 454.279 474.02 454.529 472.88C454.799 471.68 455.049 470.48 455.339 469.29C455.609 468.15 455.899 467.01 456.179 465.88C456.469 464.7 456.759 463.51 457.059 462.34C457.359 461.2 457.679 460.06 457.989 458.93C458.309 457.76 458.619 456.6 458.949 455.43C459.279 454.29 459.619 453.15 459.959 452.01C460.299 450.86 460.629 449.71 460.989 448.57C461.339 447.43 461.719 446.3 462.089 445.16C462.459 444.03 462.809 442.89 463.189 441.77C463.569 440.64 463.969 439.51 464.369 438.38C464.759 437.26 465.139 436.14 465.549 435.02C465.959 433.9 466.379 432.78 466.799 431.66C467.219 430.55 467.629 429.44 468.059 428.33C468.489 427.21 468.949 426.1 469.389 424.99C469.829 423.89 470.269 422.79 470.719 421.7C471.179 420.59 471.659 419.5 472.129 418.39C472.599 417.3 473.059 416.21 473.539 415.13C474.029 414.03 474.529 412.95 475.029 411.86C475.519 410.79 476.009 409.71 476.509 408.64C477.019 407.55 477.549 406.47 478.079 405.39C478.589 404.33 479.099 403.26 479.629 402.21C480.169 401.13 480.719 400.07 481.269 398.99C481.809 397.94 482.339 396.89 482.889 395.85C483.449 394.79 484.029 393.73 484.609 392.68C485.179 391.64 485.739 390.6 486.309 389.56C486.899 388.51 487.499 387.47 488.099 386.43C488.689 385.4 489.279 384.37 489.879 383.35C490.489 382.31 491.119 381.29 491.739 380.26C492.309 379.31 492.889 378.36 493.469 377.42C493.509 377.35 493.549 377.28 493.589 377.22C494.219 376.2 494.869 375.19 495.519 374.17C496.159 373.17 496.799 372.16 497.449 371.16C498.109 370.16 498.779 369.16 499.449 368.16C500.119 367.17 500.779 366.17 501.459 365.19C502.139 364.2 502.829 363.23 503.519 362.25C504.209 361.27 504.899 360.28 505.609 359.31C506.309 358.34 507.029 357.38 507.739 356.42C508.459 355.45 509.169 354.48 509.899 353.52C510.619 352.57 511.36 351.63 512.09 350.68C512.83 349.72 513.58 348.76 514.33 347.81C515.07 346.88 515.83 345.95 516.59 345.03C516.7 344.9 516.809 344.76 516.919 344.63C517.579 343.82 518.239 343.01 518.909 342.2C519.669 341.29 520.449 340.38 521.219 339.48C522.019 338.55 522.82 337.61 523.63 336.69C524.41 335.8 525.21 334.92 526 334.03C526.58 333.38 527.16 332.74 527.74 332.1C621.25 377.54 681.53 474.28 681.53 579.2C681.53 581.33 681.5 583.48 681.45 585.62C676.91 584.21 672.36 583.06 667.87 582.19C627.22 574.37 590.939 580.45 556.969 600.78C530.359 616.7 505.329 641.16 478.479 677.54C472.729 665.8 467.759 653.8 463.579 641.58C459.459 629.53 456.089 617.27 453.499 604.81C452.789 601.37 452.139 597.9 451.539 594.43C449.569 582.95 448.229 571.32 447.559 559.55C447.209 553.42 447.029 547.24 447.029 541.03C447.019 538.59 447.039 536.15 447.099 533.72ZM687.12 593.92C694.89 596.87 702.66 600.7 710.32 605.3C703.58 685.09 666.069 758.97 605.039 811.29C597.689 807.19 590.43 802.73 583.37 797.98C645.42 747.84 683.02 673.89 687.12 593.92ZM716.02 608.88C738.31 623.59 759.55 645.24 777.83 671.88C715.27 708.22 669.14 779.96 670.57 838.31C649.77 832.48 629.65 824.44 610.64 814.36C671.1 761.78 708.52 688.31 716.02 608.88ZM676.64 839.93C674.22 783.2 719.56 712.51 781.2 676.87C814.6 727.66 834.24 790.66 831.71 838.87C805.91 845.9 779.17 849.47 752.18 849.47C726.62 849.47 701.21 846.25 676.64 839.93ZM139.299 579.2C139.299 428.11 260.919 305.19 410.409 305.19C436.979 305.19 463.189 309.06 488.379 316.7C436.129 379.39 407.409 458.86 407.409 541.03C407.409 602 423.209 661.91 453.099 714.43C443.219 729.64 433.449 745.48 423.999 760.81C405.249 791.24 385.869 822.68 365.329 849.43C234.249 827.29 139.299 713.94 139.299 579.2ZM429.119 763.96C438.029 749.5 447.209 734.61 456.499 720.23C479.089 758.26 508.209 791.18 543.219 818.16C502.869 841.11 457.049 853.22 410.419 853.22C397.589 853.22 384.719 852.3 372.079 850.49C392.059 824.08 410.879 793.55 429.119 763.96ZM109.41 579.2C109.41 411.44 244.439 274.96 410.419 274.96C444.859 274.96 478.599 280.8 510.789 292.3C504.539 298.51 498.449 305.02 492.619 311.74C466.099 303.42 438.459 299.19 410.409 299.19C336.379 299.19 266.789 328.32 214.449 381.21C162.119 434.09 133.299 504.41 133.299 579.2C133.299 646.16 157.06 710.97 200.21 761.67C242.9 811.84 301.829 845.22 366.129 855.66C366.139 855.66 366.139 855.66 366.149 855.66C380.689 858.02 395.589 859.22 410.419 859.22C458.949 859.22 506.619 846.38 548.419 822.08C555.549 827.37 562.87 832.38 570.26 837.02C522.4 867.39 467.249 883.43 410.419 883.43C244.439 883.43 109.41 746.96 109.41 579.2ZM750.19 912.46C724.26 908.9 704.87 899.39 692.39 884.17C712.03 887.65 732.04 889.43 752.18 889.43C775.49 889.43 798.449 887.1 820.789 882.56C807.689 906.71 783.41 917.03 750.19 912.46ZM993.909 842.82C976.629 854.97 956.2 853.23 936.37 837.91C935.86 837.51 935.329 837.09 934.799 836.68C956.719 822.8 977.239 806.32 995.979 787.38C1005.17 778.09 1013.75 768.36 1021.76 758.25C1029.21 789.41 1017.4 826.3 993.909 842.82ZM1023.9 745.31C1022.74 742.47 1021.42 739.68 1019.92 737C1016.37 730.71 1012.56 724.74 1008.59 719.17C1044.41 666.65 1063.34 605.11 1063.34 541.03C1063.34 531.59 1062.9 522.1 1062.07 512.77C1071.01 510.46 1080.17 508.95 1089.4 508.28C1090.42 519.06 1090.96 529.98 1090.96 541.03C1090.96 617.53 1066.01 688.24 1023.9 745.31ZM1278.01 637.83C1282.15 664.87 1272.3 688.14 1249.55 705.11C1224.61 723.69 1196.45 720.11 1172.3 695.27C1133.06 654.92 1120.19 574.89 1162.83 518.96C1222.46 540.6 1270.74 590.31 1278.01 637.83ZM1408.5 563.9C1408.77 578.44 1401.83 590.38 1388.43 598.41C1372.74 607.81 1353.77 595.16 1341.91 578.45C1322.02 550.41 1317.49 509.04 1346.67 483.24C1382.67 503.66 1407.99 536.6 1408.5 563.9Z" fill="#ECFCCA"/>
</g>
<defs>
<clipPath id="clip0_53_231">
<rect width="1621.47" height="964.07" fill="white"/>
</clipPath>
</defs>
</svg>
