<svg width="20" height="20" viewBox="0 0 20 20" fill="none" xmlns="http://www.w3.org/2000/svg">
<path d="M11.3668 0.0944217C6.42024 -0.587318 1.72895 2.48505 0.375756 7.29256C-0.977434 12.1001 1.42223 17.1692 5.99783 19.1689C5.93776 18.4008 5.99247 17.628 6.16014 16.8761C6.34476 16.0374 7.45633 11.4132 7.45633 11.4132C7.23483 10.9173 7.12405 10.379 7.13171 9.8359C7.13171 8.3509 7.98865 7.24295 9.05482 7.24295C9.44232 7.23718 9.81322 7.40028 10.0709 7.68981C10.3286 7.97934 10.4477 8.3667 10.3971 8.751C10.3971 9.6512 9.81872 11.0131 9.51792 12.2903C9.39652 12.7656 9.50822 13.2703 9.81882 13.65C10.1294 14.0296 10.602 14.2389 11.0918 14.2139C12.9895 14.2139 14.2626 11.7825 14.2626 8.9126C14.2626 6.71205 12.8049 5.0655 10.1194 5.0655C8.82112 5.01531 7.559 5.4996 6.62735 6.40543C5.69569 7.31126 5.17596 8.5595 5.18935 9.859C5.16075 10.5722 5.39078 11.2717 5.83706 11.8287C6.00873 11.9564 6.07497 12.1825 5.99937 12.3827C5.95322 12.5673 5.83706 13.0059 5.7909 13.1675C5.77144 13.278 5.70071 13.3728 5.60028 13.4228C5.49985 13.4729 5.38163 13.4724 5.28166 13.4214C3.89702 12.8674 3.24469 11.3439 3.24469 9.6051C3.24469 6.75822 5.62936 3.3497 10.3987 3.3497C14.1949 3.3497 16.7181 6.1273 16.7181 9.0972C16.7181 13.0059 14.5419 15.9451 11.3249 15.9451C10.3477 15.9761 9.42242 15.5061 8.87102 14.6986C8.87102 14.6986 8.29252 17.0146 8.17862 17.4531C7.94613 18.2099 7.60291 18.9281 7.16017 19.5844C8.08282 19.8643 9.04222 20.0044 10.0064 20C12.6587 20.0017 15.2029 18.9484 17.078 17.072C18.9531 15.1957 20.005 12.6504 20.002 9.9975C19.9991 5.00306 16.3134 0.776162 11.3668 0.0944217Z" fill="#FEFBF3"/>
</svg>
