<svg width="105" height="57" viewBox="0 0 105 57" fill="none" xmlns="http://www.w3.org/2000/svg">
<path d="M2.6853e-05 1.00119H16.0182V5.00574L15.6845 4.95012C15.6845 3.74505 15.1098 2.88296 13.9603 2.36385C12.8109 1.8262 11.1609 1.55738 9.01027 1.55738V14.1828C9.01027 15.5362 9.03808 16.6115 9.0937 17.4087C9.14932 18.2059 9.2791 18.7992 9.48303 19.1885C9.68697 19.5779 10.0114 19.8374 10.4564 19.9672C10.9013 20.0784 11.5039 20.1341 12.264 20.1341L12.3196 20.4678H3.7543L3.80992 20.1341C4.58858 20.1341 5.19112 20.0784 5.61753 19.9672C6.06248 19.8374 6.38692 19.5779 6.59086 19.1885C6.79479 18.7992 6.92457 18.2059 6.98019 17.4087C7.03581 16.6115 7.06362 15.5362 7.06362 14.1828V1.55738C4.93156 1.55738 3.27227 1.8262 2.08573 2.36385C0.917737 2.88296 0.33374 3.74505 0.33374 4.95012L2.6853e-05 5.00574V1.00119ZM21.3422 4.87177e-05V12.0137C21.4535 11.2351 21.6759 10.4657 22.0097 9.70553C22.3619 8.92687 22.8439 8.28725 23.4557 7.78668C24.0861 7.28611 24.8555 7.03583 25.7639 7.03583C27.1915 7.03583 28.2575 7.42516 28.962 8.20382C29.6665 8.96395 30.0188 10.0578 30.0188 11.4853V15.8792C30.0188 17.1399 30.0651 18.0762 30.1578 18.688C30.2505 19.2998 30.4637 19.6984 30.7974 19.8838C31.1311 20.0506 31.6595 20.1341 32.3826 20.1341L32.4382 20.4678H25.6805L25.7361 20.1341C26.3108 20.1341 26.7558 20.0877 27.071 19.995C27.3861 19.9023 27.6086 19.7076 27.7384 19.411C27.8867 19.1144 27.9794 18.6694 28.0165 18.0762C28.0536 17.4644 28.0721 16.6486 28.0721 15.6289V11.7634C28.0721 10.5584 27.8867 9.61283 27.5159 8.92687C27.1451 8.2409 26.4499 7.89792 25.4302 7.89792C24.7813 7.89792 24.2159 8.09259 23.7338 8.48192C23.2703 8.87125 22.881 9.38109 22.5658 10.0114C22.2692 10.6232 22.0282 11.2907 21.8428 12.0137C21.6574 12.7368 21.5276 13.4413 21.4535 14.1272C21.3793 14.7947 21.3422 15.3787 21.3422 15.8792C21.3422 16.8433 21.3608 17.6127 21.3978 18.1874C21.4349 18.7436 21.5276 19.1607 21.6759 19.4388C21.8243 19.7169 22.056 19.9023 22.3712 19.995C22.6863 20.0877 23.122 20.1341 23.6782 20.1341L23.7338 20.4678H16.9483L17.004 20.1341C17.5787 20.1341 18.0236 20.0877 18.3388 19.995C18.6725 19.9023 18.9135 19.7169 19.0619 19.4388C19.2102 19.1422 19.3029 18.7065 19.3399 18.1318C19.377 17.5571 19.3956 16.7877 19.3956 15.8236V6.56307C19.3956 5.20968 19.3678 4.13438 19.3121 3.33718C19.2751 2.53997 19.1638 1.94671 18.9784 1.55738C18.793 1.16804 18.5149 0.91776 18.1441 0.806523C17.7919 0.676745 17.2913 0.611856 16.6424 0.611856L16.5868 0.305953C16.5868 0.305953 16.8186 0.278144 17.2821 0.222524C17.7641 0.166906 18.3666 0.120557 19.0897 0.0834775C19.8127 0.0278583 20.5636 4.87177e-05 21.3422 4.87177e-05ZM44.1737 11.4853V14.2941C44.1737 15.6104 44.1923 16.6301 44.2294 17.3531C44.285 18.0762 44.3962 18.586 44.5631 18.8826C44.7299 19.1607 44.9802 19.2998 45.3139 19.2998C45.5549 19.2998 45.7774 19.2627 45.9814 19.1885C46.1853 19.0958 46.38 19.0031 46.5654 18.9104L46.7044 19.1885C46.7044 19.1885 46.519 19.309 46.1482 19.5501C45.7774 19.7725 45.2676 20.0043 44.6187 20.2453C43.9884 20.4863 43.2838 20.6068 42.5052 20.6068C42.431 20.2546 42.3661 19.7355 42.3105 19.0495C42.2549 18.3635 42.2271 17.6405 42.2271 16.8804C42.0232 17.4922 41.7451 18.0947 41.3928 18.688C41.0591 19.2812 40.6049 19.7725 40.0301 20.1619C39.4554 20.5512 38.7138 20.7459 37.8054 20.7459C36.7116 20.7459 35.8217 20.44 35.1357 19.8282C34.4497 19.2164 34.1067 18.3635 34.1067 17.2697C34.1067 16.3798 34.3756 15.6011 34.9132 14.9337C35.4509 14.2477 36.313 13.7194 37.4995 13.3486C38.686 12.9592 40.2619 12.7646 42.2271 12.7646V11.7634C42.2271 10.9662 42.1529 10.2617 42.0046 9.64991C41.8748 9.01957 41.606 8.52827 41.1981 8.17601C40.8088 7.82376 40.2341 7.64764 39.474 7.64764C38.9548 7.64764 38.547 7.7496 38.2503 7.95354C37.9537 8.13894 37.7127 8.37068 37.5273 8.64878C37.3604 8.92687 37.2121 9.21423 37.0823 9.51087C36.9526 9.78896 36.795 10.03 36.6096 10.2339C36.4427 10.4193 36.2017 10.512 35.8865 10.512C35.2562 10.512 34.941 10.1968 34.941 9.56649C34.941 9.02884 35.1635 8.57462 35.6084 8.20382C36.0534 7.83303 36.6281 7.54567 37.3326 7.34173C38.0557 7.1378 38.8065 7.03583 39.5852 7.03583C40.9015 7.03583 41.9953 7.39735 42.8667 8.1204C43.7381 8.8249 44.1737 9.94655 44.1737 11.4853ZM38.2503 19.8838C38.9734 19.8838 39.5852 19.6706 40.0858 19.2442C40.5863 18.8177 40.9849 18.2708 41.2816 17.6034C41.5967 16.936 41.8285 16.2315 41.9768 15.4899C42.1251 14.7298 42.2085 14.0345 42.2271 13.4042C40.7625 13.4227 39.5852 13.6174 38.6953 13.9882C37.8239 14.359 37.1936 14.841 36.8043 15.4343C36.4149 16.0275 36.2203 16.6764 36.2203 17.3809C36.2203 18.0669 36.3871 18.6602 36.7208 19.1607C37.0545 19.6428 37.5644 19.8838 38.2503 19.8838ZM51.9415 4.87177e-05V15.6289C51.9415 16.6486 51.96 17.4644 51.9971 18.0762C52.0342 18.6694 52.1269 19.1144 52.2752 19.411C52.442 19.7076 52.6831 19.9023 52.9982 19.995C53.3134 20.0877 53.7491 20.1341 54.3053 20.1341L54.3609 20.4678H47.5476L47.6032 20.1341C48.1779 20.1341 48.6229 20.0877 48.9381 19.995C49.2718 19.9023 49.5128 19.7076 49.6611 19.411C49.8094 19.1144 49.9021 18.6694 49.9392 18.0762C49.9763 17.4644 49.9948 16.6486 49.9948 15.6289V5.00574C49.9948 4.0046 49.9763 3.2074 49.9392 2.61413C49.9021 2.02087 49.8094 1.58519 49.6611 1.30709C49.5128 1.029 49.2718 0.852871 48.9381 0.778714C48.6229 0.686015 48.1779 0.639665 47.6032 0.639665L47.5476 0.333762C47.5476 0.333762 47.7515 0.305953 48.1594 0.250333C48.5673 0.194715 49.1049 0.139097 49.7723 0.0834775C50.4583 0.0278583 51.1814 4.87177e-05 51.9415 4.87177e-05ZM60.2233 7.03583V15.8792C60.2233 16.8433 60.2418 17.6127 60.2789 18.1874C60.3159 18.7436 60.4086 19.1607 60.557 19.4388C60.7053 19.7169 60.937 19.9023 61.2522 19.995C61.5674 20.0877 62.0031 20.1341 62.5592 20.1341L62.6149 20.4678H55.8294L55.885 20.1341C56.4597 20.1341 56.9047 20.0877 57.2198 19.995C57.5535 19.9023 57.7946 19.7169 57.9429 19.4388C58.0912 19.1422 58.1839 18.7065 58.221 18.1318C58.2581 17.5571 58.2766 16.7877 58.2766 15.8236V13.5988C58.2766 12.2455 58.2488 11.1702 58.1932 10.373C58.1561 9.57576 58.0448 8.98249 57.8595 8.59316C57.6741 8.20382 57.396 7.95354 57.0252 7.8423C56.6729 7.71253 56.1723 7.64764 55.5235 7.64764L55.4678 7.34173C55.4678 7.34173 55.6996 7.31392 56.1631 7.2583C56.6451 7.20269 57.2476 7.15634 57.9707 7.11926C58.6937 7.06364 59.4446 7.03583 60.2233 7.03583ZM57.5814 2.58633C57.5814 2.15991 57.7389 1.78912 58.0541 1.47395C58.3693 1.15877 58.7401 1.00119 59.1665 1.00119C59.5929 1.00119 59.9637 1.15877 60.2789 1.47395C60.594 1.78912 60.7516 2.15991 60.7516 2.58633C60.7516 3.01274 60.594 3.38353 60.2789 3.6987C59.9637 4.01387 59.5929 4.17146 59.1665 4.17146C58.7401 4.17146 58.3693 4.01387 58.0541 3.6987C57.7389 3.38353 57.5814 3.01274 57.5814 2.58633ZM75.251 13.432H66.1295V13.9048C66.1295 15.2952 66.3334 16.4354 66.7413 17.3253C67.1492 18.2152 67.6868 18.8734 68.3542 19.2998C69.0217 19.7262 69.7354 19.9394 70.4956 19.9394C71.2742 19.9394 72.0251 19.7725 72.7481 19.4388C73.4897 19.0866 74.0737 18.5118 74.5001 17.7146L74.9173 17.9371C74.3982 18.9568 73.7029 19.6798 72.8316 20.1063C71.9787 20.5327 71.061 20.7459 70.0784 20.7459C69.0402 20.7459 68.0576 20.4956 67.1306 19.995C66.2036 19.4759 65.4528 18.7065 64.8781 17.6868C64.3033 16.6672 64.016 15.4065 64.016 13.9048C64.016 12.6441 64.2477 11.4946 64.7112 10.4564C65.1747 9.41817 65.8329 8.59316 66.6857 7.98135C67.557 7.351 68.6045 7.03583 69.8281 7.03583C71.0332 7.03583 72.0344 7.32319 72.8316 7.89792C73.6288 8.47265 74.2313 9.24204 74.6392 10.2061C75.047 11.1702 75.251 12.2455 75.251 13.432ZM69.856 7.59202C68.725 7.59202 67.8629 8.07405 67.2697 9.03811C66.6764 10.0022 66.3149 11.198 66.1851 12.6255H73.1097C73.054 11.1053 72.7759 9.89093 72.2754 8.98249C71.7748 8.05551 70.9683 7.59202 69.856 7.59202ZM104.01 20.1341L104.065 20.4678H99.8662C99.3656 20.3565 98.7353 20.097 97.9752 19.6891C97.215 19.2812 96.4178 18.7529 95.5836 18.104C94.7864 19.031 93.8594 19.7076 92.8026 20.1341C91.7459 20.5419 90.6428 20.7459 89.4933 20.7459C87.5281 20.7459 86.0079 20.236 84.9326 19.2164C83.8573 18.1967 83.3196 16.8155 83.3196 15.0727C83.3196 14.0901 83.5884 13.1724 84.1261 12.3196C84.6637 11.4668 85.3682 10.7159 86.2396 10.0671C87.111 9.41817 88.0472 8.89906 89.0483 8.50973C88.9927 8.19455 88.9464 7.87011 88.9093 7.5364C88.8722 7.20269 88.8537 6.8597 88.8537 6.50745C88.8537 5.46923 89.0576 4.54225 89.4655 3.72651C89.8734 2.89223 90.4388 2.23407 91.1619 1.75204C91.8849 1.27001 92.7285 1.029 93.6925 1.029C94.7122 1.029 95.5372 1.34417 96.1676 1.97452C96.7979 2.58632 97.1131 3.32791 97.1131 4.19927C97.1131 4.79254 96.974 5.3858 96.6959 5.97907C96.4178 6.57234 95.9451 7.07291 95.2777 7.48078C94.6102 7.87011 93.6833 8.09259 92.4967 8.14821C92.9787 8.38922 93.6369 8.63951 94.4712 8.89906C95.3055 9.14007 96.2881 9.26058 97.419 9.26058C98.2162 9.26058 98.9021 9.12154 99.4769 8.84344C100.052 8.54681 100.534 8.25944 100.923 7.98135C101.461 7.59202 101.887 7.39735 102.202 7.39735C102.462 7.39735 102.629 7.47151 102.703 7.61983C102.795 7.7496 102.842 7.90719 102.842 8.09259C102.842 8.4263 102.656 8.70439 102.286 8.92687C101.915 9.14934 101.461 9.33474 100.923 9.48306C100.385 9.63137 99.8569 9.74261 99.3378 9.81677C98.8187 9.89093 98.4016 9.93728 98.0864 9.95582C98.0679 11.3463 97.9195 12.5977 97.6415 13.7101C97.3819 14.8039 97.0296 15.768 96.5847 16.6023C97.178 17.0843 97.901 17.5941 98.7538 18.1318C99.6067 18.6694 100.497 19.1329 101.424 19.5223C102.351 19.9116 103.213 20.1155 104.01 20.1341ZM90.856 6.53526C90.856 7.22123 91.0043 8.08332 91.3009 9.12154C91.6161 10.1412 92.1352 11.2443 92.8582 12.4309C93.5813 13.5988 94.5453 14.7483 95.7504 15.8792C96.1212 15.0079 96.39 14.0716 96.5569 13.0705C96.7423 12.0508 96.8443 11.0033 96.8628 9.92801C95.7319 9.83531 94.7864 9.61283 94.0262 9.26058C93.2661 8.90833 92.6358 8.53754 92.1352 8.14821V7.89792C92.7655 7.89792 93.3217 7.74033 93.8038 7.42516C94.2858 7.10999 94.6658 6.69285 94.9439 6.17374C95.222 5.65463 95.3611 5.08917 95.3611 4.47736C95.3611 3.64308 95.2035 2.94785 94.8883 2.39166C94.5732 1.81693 94.1189 1.52957 93.5257 1.52957C92.7841 1.52957 92.1537 1.96525 91.6346 2.83661C91.1155 3.70797 90.856 4.94085 90.856 6.53526ZM89.9104 19.9116C91.0043 19.9116 91.9591 19.7355 92.7748 19.3832C93.6091 19.0124 94.3136 18.4006 94.8883 17.5478C94.0726 16.8433 93.2754 16.0461 92.4967 15.1562C91.7181 14.2663 91.0321 13.3022 90.4388 12.264C89.8456 11.2072 89.4099 10.0949 89.1318 8.92687C86.7402 10.2803 85.5444 12.3382 85.5444 15.1006C85.5444 16.1573 85.7483 17.0472 86.1562 17.7703C86.564 18.4748 87.1017 19.0124 87.7691 19.3832C88.4365 19.7355 89.1503 19.9116 89.9104 19.9116ZM0.973356 29.0012H6.59086C7.36952 29.0012 8.23161 29.029 9.17713 29.0846C10.1227 29.1217 11.0867 29.2329 12.0693 29.4183C13.0704 29.6037 14.0345 29.9096 14.9615 30.336C15.8885 30.7439 16.7135 31.3001 17.4365 32.0046C18.1781 32.7091 18.7621 33.6175 19.1885 34.7299C19.6335 35.8238 19.8559 37.1586 19.8559 38.7345C19.8559 40.2918 19.6335 41.6174 19.1885 42.7112C18.7621 43.7865 18.1874 44.6857 17.4643 45.4087C16.7598 46.1132 15.9812 46.6787 15.1283 47.1051C14.2755 47.513 13.4134 47.8189 12.5421 48.0228C11.6892 48.2082 10.9013 48.3287 10.1783 48.3843C9.45523 48.44 8.8805 48.4678 8.45409 48.4678H0.973356L1.02897 48.1341C1.65932 48.1341 2.15062 48.0784 2.50287 47.9672C2.87367 47.8374 3.14249 47.5779 3.30935 47.1885C3.49474 46.7992 3.61525 46.2059 3.67087 45.4087C3.72649 44.6115 3.7543 43.5362 3.7543 42.1828V35.2861C3.7543 33.9327 3.72649 32.8574 3.67087 32.0602C3.61525 31.263 3.49474 30.6698 3.30935 30.2804C3.14249 29.8725 2.87367 29.613 2.50287 29.5018C2.15062 29.372 1.65932 29.3071 1.02897 29.3071L0.973356 29.0012ZM6.7299 47.8003C6.89676 47.8189 7.07289 47.8282 7.25828 47.8282C7.46222 47.8282 7.65688 47.8282 7.84228 47.8282C8.63948 47.8282 9.47376 47.754 10.3451 47.6057C11.235 47.4388 12.0971 47.1607 12.9314 46.7714C13.7842 46.3821 14.5443 45.8444 15.2118 45.1585C15.8977 44.4539 16.4354 43.5826 16.8247 42.5444C17.2326 41.4876 17.4365 40.2176 17.4365 38.7345C17.4365 37.2699 17.2326 36.0184 16.8247 34.9802C16.4354 33.9235 15.907 33.0521 15.2396 32.3661C14.5722 31.6802 13.8213 31.1425 12.987 30.7532C12.1527 30.3453 11.2906 30.0579 10.4007 29.8911C9.52938 29.7242 8.68583 29.6408 7.87009 29.6408C7.03581 29.6408 6.31276 29.6964 5.70096 29.8077V42.5166C5.70096 43.7958 5.7195 44.7877 5.75657 45.4922C5.79365 46.1967 5.88635 46.7158 6.03467 47.0495C6.18299 47.3832 6.41473 47.6335 6.7299 47.8003ZM25.8536 35.0358V43.8792C25.8536 44.8433 25.8722 45.6127 25.9093 46.1874C25.9463 46.7436 26.039 47.1607 26.1874 47.4388C26.3357 47.7169 26.5674 47.9023 26.8826 47.995C27.1978 48.0877 27.6335 48.1341 28.1896 48.1341L28.2453 48.4678H21.4598L21.5154 48.1341C22.0901 48.1341 22.5351 48.0877 22.8502 47.995C23.1839 47.9023 23.425 47.7169 23.5733 47.4388C23.7216 47.1422 23.8143 46.7065 23.8514 46.1318C23.8885 45.5571 23.907 44.7877 23.907 43.8236V41.5988C23.907 40.2455 23.8792 39.1702 23.8236 38.373C23.7865 37.5758 23.6752 36.9825 23.4898 36.5932C23.3045 36.2038 23.0264 35.9535 22.6556 35.8423C22.3033 35.7125 21.8027 35.6476 21.1539 35.6476L21.0982 35.3417C21.0982 35.3417 21.33 35.3139 21.7935 35.2583C22.2755 35.2027 22.878 35.1563 23.6011 35.1193C24.3241 35.0636 25.075 35.0358 25.8536 35.0358ZM23.2118 30.5863C23.2118 30.1599 23.3693 29.7891 23.6845 29.4739C23.9997 29.1588 24.3705 29.0012 24.7969 29.0012C25.2233 29.0012 25.5941 29.1588 25.9093 29.4739C26.2244 29.7891 26.382 30.1599 26.382 30.5863C26.382 31.0127 26.2244 31.3835 25.9093 31.6987C25.5941 32.0139 25.2233 32.1715 24.7969 32.1715C24.3705 32.1715 23.9997 32.0139 23.6845 31.6987C23.3693 31.3835 23.2118 31.0127 23.2118 30.5863ZM42.244 40.0137C42.3367 39.2351 42.5407 38.4657 42.8558 37.7055C43.1896 36.9269 43.6345 36.2873 44.1907 35.7867C44.7654 35.2861 45.4699 35.0358 46.3042 35.0358C47.6391 35.0358 48.6495 35.4252 49.3354 36.2038C50.0214 36.9639 50.3644 38.0578 50.3644 39.4853V43.8792C50.3644 45.1399 50.4107 46.0762 50.5034 46.688C50.5961 47.2998 50.8093 47.6984 51.143 47.8838C51.4768 48.0506 52.0051 48.1341 52.7282 48.1341L52.7838 48.4678H46.2208L46.2764 48.1341C46.7955 48.1341 47.2034 48.0877 47.5 47.995C47.7966 47.9023 48.0099 47.7076 48.1396 47.411C48.2694 47.1144 48.3436 46.6694 48.3621 46.0762C48.3992 45.4644 48.4177 44.6486 48.4177 43.6289V39.7634C48.4177 38.5584 48.2416 37.6128 47.8893 36.9269C47.5556 36.2409 46.9253 35.8979 45.9983 35.8979C45.405 35.8979 44.8952 36.0926 44.4688 36.4819C44.0424 36.8713 43.6809 37.3811 43.3842 38.0114C43.1061 38.6232 42.8837 39.2907 42.7168 40.0137C42.5499 40.7368 42.4294 41.4413 42.3553 42.1272C42.2811 42.7947 42.244 43.3787 42.244 43.8792C42.244 44.8433 42.2626 45.6127 42.2997 46.1874C42.3367 46.7436 42.4294 47.1607 42.5777 47.4388C42.7261 47.7169 42.9578 47.9023 43.273 47.995C43.5882 48.0877 44.0238 48.1341 44.58 48.1341L44.6356 48.4678H38.1004L38.1561 48.1341C38.6752 48.1341 39.083 48.0877 39.3797 47.995C39.6763 47.9023 39.8895 47.7076 40.0193 47.411C40.1491 47.1144 40.2232 46.6694 40.2418 46.0762C40.2788 45.4644 40.2974 44.6486 40.2974 43.6289V39.7634C40.2974 38.5584 40.1212 37.6128 39.769 36.9269C39.4353 36.2409 38.8049 35.8979 37.878 35.8979C37.2847 35.8979 36.7749 36.0926 36.3484 36.4819C35.922 36.8713 35.5605 37.3811 35.2639 38.0114C34.9858 38.6232 34.7633 39.2907 34.5964 40.0137C34.4296 40.7368 34.3091 41.4413 34.2349 42.1272C34.1608 42.7947 34.1237 43.3787 34.1237 43.8792C34.1237 44.8433 34.1422 45.6127 34.1793 46.1874C34.2164 46.7436 34.3091 47.1607 34.4574 47.4388C34.6057 47.7169 34.8375 47.9023 35.1526 47.995C35.4678 48.0877 35.9035 48.1341 36.4597 48.1341L36.5153 48.4678H29.7298L29.7854 48.1341C30.3601 48.1341 30.8051 48.0877 31.1203 47.995C31.454 47.9023 31.695 47.7169 31.8433 47.4388C31.9916 47.1422 32.0843 46.7065 32.1214 46.1318C32.1585 45.5571 32.177 44.7877 32.177 43.8236V41.5988C32.177 40.2455 32.1492 39.1702 32.0936 38.373C32.0565 37.5758 31.9453 36.9825 31.7599 36.5932C31.5745 36.2038 31.2964 35.9535 30.9256 35.8423C30.5734 35.7125 30.0728 35.6476 29.4239 35.6476L29.3683 35.3417C29.3683 35.3417 29.6 35.3139 30.0635 35.2583C30.5455 35.2027 31.1481 35.1563 31.8711 35.1193C32.5942 35.0636 33.345 35.0358 34.1237 35.0358V40.0137C34.2164 39.2351 34.4203 38.4657 34.7355 37.7055C35.0692 36.9269 35.5142 36.2873 36.0703 35.7867C36.6451 35.2861 37.3496 35.0358 38.1839 35.0358C39.5187 35.0358 40.5291 35.4252 41.2151 36.2038C41.9011 36.9825 42.244 38.2525 42.244 40.0137ZM58.6611 35.0358V43.8792C58.6611 44.8433 58.6797 45.6127 58.7168 46.1874C58.7538 46.7436 58.8465 47.1607 58.9949 47.4388C59.1432 47.7169 59.3749 47.9023 59.6901 47.995C60.0053 48.0877 60.4409 48.1341 60.9971 48.1341L61.0528 48.4678H54.2673L54.3229 48.1341C54.8976 48.1341 55.3426 48.0877 55.6577 47.995C55.9914 47.9023 56.2325 47.7169 56.3808 47.4388C56.5291 47.1422 56.6218 46.7065 56.6589 46.1318C56.6959 45.5571 56.7145 44.7877 56.7145 43.8236V41.5988C56.7145 40.2455 56.6867 39.1702 56.6311 38.373C56.594 37.5758 56.4827 36.9825 56.2973 36.5932C56.1119 36.2038 55.8339 35.9535 55.4631 35.8423C55.1108 35.7125 54.6102 35.6476 53.9614 35.6476L53.9057 35.3417C53.9057 35.3417 54.1375 35.3139 54.601 35.2583C55.083 35.2027 55.6855 35.1563 56.4086 35.1193C57.1316 35.0636 57.8825 35.0358 58.6611 35.0358ZM56.0193 30.5863C56.0193 30.1599 56.1768 29.7891 56.492 29.4739C56.8072 29.1588 57.178 29.0012 57.6044 29.0012C58.0308 29.0012 58.4016 29.1588 58.7168 29.4739C59.0319 29.7891 59.1895 30.1599 59.1895 30.5863C59.1895 31.0127 59.0319 31.3835 58.7168 31.6987C58.4016 32.0139 58.0308 32.1715 57.6044 32.1715C57.178 32.1715 56.8072 32.0139 56.492 31.6987C56.1768 31.3835 56.0193 31.0127 56.0193 30.5863ZM66.2359 31.8934V35.3139H69.6565V35.9257H66.2359V46.5211C66.2359 46.929 66.3286 47.2442 66.514 47.4666C66.6994 47.6891 66.9405 47.8003 67.2371 47.8003C67.6079 47.8003 67.9787 47.754 68.3495 47.6613C68.7203 47.5501 69.1374 47.4017 69.6009 47.2164L69.6565 47.5223C69.1374 47.856 68.5905 48.1433 68.0157 48.3843C67.441 48.6254 66.8385 48.7459 66.2081 48.7459C65.5963 48.7459 65.1236 48.5976 64.7899 48.3009C64.4561 48.0043 64.2893 47.4481 64.2893 46.6324V35.9257H62.6207V35.3139C63.3623 35.3139 63.9278 35.1656 64.3171 34.869C64.7064 34.5538 64.9938 34.1367 65.1792 33.6175C65.3646 33.0984 65.5129 32.5423 65.6241 31.949L66.2359 31.8934ZM79.3435 34.8968C79.7699 34.8968 80.1685 34.9988 80.5393 35.2027C80.9101 35.3881 81.0955 35.6662 81.0955 36.037C81.0955 36.4078 80.975 36.6951 80.734 36.8991C80.493 37.0845 80.2427 37.1772 79.9831 37.1772C79.705 37.1772 79.464 37.1215 79.2601 37.0103C79.0747 36.8805 78.8615 36.76 78.6205 36.6488C78.398 36.519 78.0736 36.4541 77.6471 36.4541C77.1466 36.4541 76.7109 36.7786 76.3401 37.4274C75.9693 38.0578 75.6819 38.8828 75.478 39.9025C75.2926 40.9222 75.1999 41.9882 75.1999 43.1006C75.1999 44.2686 75.2185 45.1955 75.2555 45.8815C75.3112 46.5675 75.4131 47.068 75.5614 47.3832C75.7098 47.6984 75.9415 47.9023 76.2567 47.995C76.5719 48.0877 77.0075 48.1341 77.5637 48.1341L77.6193 48.4678H70.8617L70.9173 48.1341C71.4549 48.1341 71.8813 48.0877 72.1965 47.995C72.5117 47.9023 72.7434 47.6984 72.8917 47.3832C73.0401 47.068 73.1328 46.5675 73.1698 45.8815C73.2255 45.1955 73.2533 44.2686 73.2533 43.1006V41.4876C73.2533 40.1342 73.2255 39.0682 73.1698 38.2895C73.1328 37.4923 73.0215 36.9083 72.8361 36.5375C72.6693 36.1667 72.4004 35.935 72.0296 35.8423C71.6774 35.7311 71.1861 35.6754 70.5557 35.6754L70.5001 35.3695C70.5001 35.3695 70.7319 35.3417 71.1954 35.2861C71.6589 35.2305 72.2429 35.1749 72.9474 35.1193C73.6704 35.0636 74.4213 35.0358 75.1999 35.0358V39.1238C75.4039 37.8075 75.8581 36.7786 76.5626 36.037C77.2856 35.2768 78.2126 34.8968 79.3435 34.8968ZM83.2405 54.3077C84.2231 54.3077 85.0203 53.9277 85.6321 53.1676C86.2439 52.4074 86.8557 51.2765 87.4676 49.7748L83.324 39.3185C82.879 38.1876 82.4711 37.3626 82.1003 36.8434C81.7295 36.3243 81.368 35.9999 81.0158 35.8701C80.6635 35.7218 80.2927 35.6476 79.9034 35.6476L79.8478 35.3139H86.7445L86.6889 35.6476C86.0215 35.6476 85.5672 35.7589 85.3262 35.9813C85.0852 36.1853 84.9647 36.4912 84.9647 36.8991C84.9647 37.3996 85.0852 38.0392 85.3262 38.8179C85.5672 39.5966 85.8824 40.4772 86.2718 41.4598L88.4131 46.8548L90.5822 40.1806C90.8418 39.4019 91.0086 38.7808 91.0828 38.3173C91.1755 37.8353 91.2218 37.446 91.2218 37.1493C91.2218 36.7044 91.0828 36.3429 90.8047 36.0648C90.5266 35.7867 90.0168 35.6476 89.2752 35.6476L89.2195 35.3139H94.4477L94.3921 35.6476C94.0028 35.6476 93.6876 35.694 93.4466 35.7867C93.2056 35.8794 92.9831 36.0926 92.7792 36.4263C92.5752 36.76 92.3435 37.2884 92.0839 38.0114C91.8244 38.7159 91.4907 39.6893 91.0828 40.9314L88.5799 48.5512C87.7642 51.054 86.8094 52.9822 85.7156 54.3356C84.6217 55.6889 83.4815 56.3656 82.295 56.3656C81.7944 56.3656 81.3588 56.2637 80.988 56.0597C80.6172 55.8558 80.4318 55.5499 80.4318 55.142C80.4318 54.7342 80.5523 54.4283 80.7933 54.2243C81.0529 54.0389 81.2939 53.9462 81.5163 53.9462C81.9242 53.9462 82.2301 54.0018 82.4341 54.1131C82.638 54.2429 82.9068 54.3077 83.2405 54.3077Z" fill="#174664"/>
</svg>
